HIERARCHY
ROOT Hips
{
	OFFSET -0.001795 -0.223333 0.028219
	CHANNELS 6 Xposition Yposition Zposition Zrotation Yrotation Xrotation 
	JOINT LeftUpLeg
	{
		OFFSET 0.069520 -0.091406 -0.006815
		CHANNELS 3 Zrotation Yrotation Xrotation
		JOINT LeftLeg
		{
			OFFSET 0.034277 -0.375199 -0.004496
			CHANNELS 3 Zrotation Yrotation Xrotation
			JOINT LeftFoot
			{
				OFFSET -0.013596 -0.397961 -0.043693
				CHANNELS 3 Zrotation Yrotation Xrotation
				JOINT LeftToe
				{
					OFFSET 0.026358 -0.055791 0.119288
					CHANNELS 3 Zrotation Yrotation Xrotation
					End Site
					{
						OFFSET 0.000000 0.000000 0.000000
					}
				}
			}
		}
	}
	JOINT RightUpLeg
	{
		OFFSET -0.067670 -0.090522 -0.004320
		CHANNELS 3 Zrotation Yrotation Xrotation
		JOINT RightLeg
		{
			OFFSET -0.038290 -0.382569 -0.008850
			CHANNELS 3 Zrotation Yrotation Xrotation
			JOINT RightFoot
			{
				OFFSET 0.015774 -0.398415 -0.042312
				CHANNELS 3 Zrotation Yrotation Xrotation
				JOINT RightToe
				{
					OFFSET -0.025372 -0.048144 0.123348
					CHANNELS 3 Zrotation Yrotation Xrotation
					End Site
					{
						OFFSET 0.000000 0.000000 0.000000
					}
				}
			}
		}
	}
	JOINT Spine
	{
		OFFSET -0.002533 0.108963 -0.026696
		CHANNELS 3 Zrotation Yrotation Xrotation
		JOINT Spine1
		{
			OFFSET 0.005487 0.135180 0.001092
			CHANNELS 3 Zrotation Yrotation Xrotation
			JOINT Spine2
			{
				OFFSET 0.001457 0.052922 0.025425
				CHANNELS 3 Zrotation Yrotation Xrotation
				JOINT Neck
				{
					OFFSET -0.002778 0.213870 -0.042857
					CHANNELS 3 Zrotation Yrotation Xrotation
					JOINT Head
					{
						OFFSET 0.005152 0.064970 0.051349
						CHANNELS 3 Zrotation Yrotation Xrotation
						End Site
						{
							OFFSET 0.000000 0.000000 0.000000
						}
					}
				}
				JOINT LeftShoulder
				{
					OFFSET 0.078845 0.121749 -0.034090
					CHANNELS 3 Zrotation Yrotation Xrotation
					JOINT LeftArm
					{
						OFFSET 0.090977 0.030469 -0.008868
						CHANNELS 3 Zrotation Yrotation Xrotation
						JOINT LeftForeArm
						{
							OFFSET 0.259612 -0.012772 -0.027456
							CHANNELS 3 Zrotation Yrotation Xrotation
							JOINT LeftHand
							{
								OFFSET 0.249234 0.008986 -0.001171
								CHANNELS 3 Zrotation Yrotation Xrotation
								End Site
								{
									OFFSET 0.000000 0.000000 0.000000
								}
							}
						}
					}
				}
				JOINT RightShoulder
				{
					OFFSET -0.081759 0.118833 -0.038615
					CHANNELS 3 Zrotation Yrotation Xrotation
					JOINT RightArm
					{
						OFFSET -0.096012 0.032551 -0.009143
						CHANNELS 3 Zrotation Yrotation Xrotation
						JOINT RightForeArm
						{
							OFFSET -0.253742 -0.013329 -0.021401
							CHANNELS 3 Zrotation Yrotation Xrotation
							JOINT RightHand
							{
								OFFSET -0.255298 0.007772 -0.005559
								CHANNELS 3 Zrotation Yrotation Xrotation
								End Site
								{
									OFFSET 0.000000 0.000000 0.000000
								}
							}
						}
					}
				}
			}
		}
	}
}
MOTION
Frames: 17
Frame Time: 0.050000
1.566535 0.898840 0.278897 -6.749143 -21.147259 13.502842 27.564141 9.981541 -34.193776 -9.033647 5.064538 30.881159 13.128100 23.134934 13.521478 0.000000 0.000000 0.000000 -4.265413 5.860551 -40.178032 10.378095 -0.112931 34.089044 -6.646484 -19.569881 7.169776 0.000000 0.000000 0.000000 1.691675 1.039697 41.635387 -9.962793 2.536355 -24.330919 -16.623586 -19.506814 33.237064 0.907589 -1.298772 -46.071306 0.000000 0.000000 0.000000 -2.846220 -30.860663 15.110298 3.486104 -40.803199 -2.340893 31.324889 -16.848262 -3.329696 0.000000 0.000000 0.000000 19.424180 2.478439 -9.607024 50.442282 -1.636909 -5.904887 23.370156 55.987275 7.841670 0.000000 0.000000 0.000000 
1.587885 0.875739 0.296455 -6.997663 -19.196924 13.378021 29.732096 10.553363 -34.517530 -7.410821 3.563212 27.504178 10.756767 19.470033 16.336825 0.000000 0.000000 0.000000 -6.491789 5.392928 -42.212967 12.707445 -1.138705 38.989892 -8.200962 -22.331210 4.449871 0.000000 0.000000 0.000000 0.666073 1.453238 44.646936 -10.162404 2.598573 -24.402028 -16.028414 -20.214221 32.758375 1.424333 -1.275217 -46.149880 0.000000 0.000000 0.000000 -2.609162 -31.170525 14.988391 4.338241 -39.673113 -2.516941 30.739142 -17.773136 -3.473696 0.000000 0.000000 0.000000 19.154861 2.634388 -8.953341 49.390165 -1.467707 -5.774186 16.204990 53.126239 4.372165 0.000000 0.000000 0.000000 
1.613273 0.851691 0.315748 -8.508000 -18.229346 12.964424 31.215475 11.791997 -36.792696 -7.270641 4.116782 33.457510 8.911868 17.170367 11.854646 0.000000 0.000000 0.000000 -7.469700 5.411639 -44.637771 14.697364 -2.199462 44.259822 -9.938840 -25.970467 3.800741 0.000000 0.000000 0.000000 0.075416 1.834607 47.564303 -9.879329 2.547976 -24.235434 -14.453717 -19.301820 31.496835 2.307768 -1.476753 -45.070713 0.000000 0.000000 0.000000 -3.535048 -30.245434 14.829921 3.822218 -39.229933 -2.566623 32.328318 -19.190218 -4.010502 0.000000 0.000000 0.000000 18.417077 2.931933 -7.663135 48.972608 0.880805 -5.032281 9.715304 48.197463 1.737031 0.000000 0.000000 0.000000 
1.641279 0.834355 0.335329 -8.736023 -16.581918 11.848795 31.741967 12.180969 -38.767888 -7.717602 4.805252 38.970382 7.308920 14.810997 7.078037 0.000000 0.000000 0.000000 -9.124629 4.698013 -45.486605 15.308414 -2.981322 48.326413 -10.715848 -27.462593 3.580137 0.000000 0.000000 0.000000 -0.426099 2.092528 51.456949 -9.928015 2.534685 -25.249832 -13.272525 -18.770064 31.123032 2.236352 -1.399378 -44.214067 0.000000 0.000000 0.000000 -4.724808 -30.281533 15.158184 4.853793 -37.487710 -2.862129 34.782433 -19.666127 -4.559263 0.000000 0.000000 0.000000 18.998323 4.164813 -6.527032 48.720088 4.112913 -3.827229 3.702160 43.345775 -0.117852 0.000000 0.000000 0.000000 
1.670439 0.826552 0.354290 -9.386047 -14.835471 11.520640 30.269178 12.056234 -42.286403 -7.479848 5.102843 44.569625 7.293814 14.805667 3.179361 0.000000 0.000000 0.000000 -9.948305 4.041039 -44.982904 14.576060 -3.047033 50.168573 -10.739458 -27.183264 4.265041 0.000000 0.000000 0.000000 -1.212553 2.206890 53.135380 -9.843868 2.490487 -26.205234 -10.975124 -15.929647 30.812347 3.511482 -1.367271 -44.320484 0.000000 0.000000 0.000000 -5.915180 -29.826701 15.000349 5.711897 -38.008887 -3.362449 34.455126 -18.964506 -4.479347 0.000000 0.000000 0.000000 19.753853 3.811272 -5.730854 48.942954 8.294249 -2.491110 0.625238 40.500228 -0.505953 0.000000 0.000000 0.000000 
1.699469 0.829598 0.372113 -9.825778 -12.429719 10.631592 28.667501 10.851753 -43.674731 -7.536927 5.037289 47.057004 6.811923 13.832740 0.240603 0.000000 0.000000 0.000000 -10.560792 3.023062 -41.546463 13.926257 -3.106462 47.485559 -10.161024 -25.665113 4.010063 0.000000 0.000000 0.000000 -1.660922 1.853196 54.204630 -9.638228 2.444350 -26.906559 -9.014842 -13.153516 30.573335 3.510779 -1.001289 -43.860282 0.000000 0.000000 0.000000 -6.838646 -29.318010 14.615922 6.304285 -37.104174 -3.611692 33.259400 -16.973697 -3.926243 0.000000 0.000000 0.000000 20.035755 3.874475 -4.467210 49.171229 12.366251 -1.267752 -2.581546 39.377804 -0.985389 0.000000 0.000000 0.000000 
1.727221 0.840882 0.388540 -10.111078 -11.611709 11.027751 27.145770 9.642022 -42.964492 -8.956942 5.720888 46.133305 7.500802 15.154079 -1.553864 0.000000 0.000000 0.000000 -10.158614 2.730842 -38.431813 11.808734 -2.058810 43.677269 -9.270492 -23.679047 4.607359 0.000000 0.000000 0.000000 -2.141533 1.837950 53.421402 -10.502379 2.625891 -27.163311 -6.597472 -10.451493 30.176132 4.289043 -1.001028 -43.334690 0.000000 0.000000 0.000000 -7.287924 -27.694407 13.699764 7.111656 -38.093774 -4.089331 31.201041 -13.203940 -2.813745 0.000000 0.000000 0.000000 19.345988 3.654599 -3.395143 49.473821 14.850211 -0.657565 -5.213392 42.408993 -1.647766 0.000000 0.000000 0.000000 
1.753260 0.855617 0.403151 -10.294327 -9.593430 10.753501 25.256641 7.914366 -42.066866 -9.041757 5.318057 44.983770 7.679160 15.586295 -2.567464 0.000000 0.000000 0.000000 -10.569881 2.040251 -34.366405 10.298098 -1.655307 37.565962 -8.392388 -21.689818 7.779837 0.000000 0.000000 0.000000 -1.983190 1.144357 52.891350 -10.658618 2.683959 -27.063027 -5.323369 -8.560774 29.478127 4.657167 -0.800795 -43.378779 0.000000 0.000000 0.000000 -7.037132 -26.737088 12.828977 8.183312 -37.860723 -4.377686 29.822730 -9.804238 -1.946347 0.000000 0.000000 0.000000 19.490730 3.894209 -2.476718 48.740750 16.753909 -0.033171 -7.947836 45.192607 -2.483398 0.000000 0.000000 0.000000 
1.776543 0.872513 0.415555 -10.394583 -8.548018 10.852881 23.552640 6.538972 -40.463963 -9.367809 5.003270 42.012910 7.944310 16.269503 -1.245197 0.000000 0.000000 0.000000 -10.030552 1.868294 -31.614222 9.037113 -1.255117 33.425994 -8.143978 -21.195625 10.703472 0.000000 0.000000 0.000000 -2.248685 0.932715 51.506502 -11.464875 2.810308 -27.797136 -3.796330 -6.643950 29.552527 4.886331 -0.628458 -43.685951 0.000000 0.000000 0.000000 -7.147126 -25.446978 11.997078 8.879975 -39.568515 -4.954232 29.467212 -7.138946 -1.353719 0.000000 0.000000 0.000000 20.161900 3.370309 -2.182952 47.922692 17.590179 0.108938 -10.151172 48.348263 -3.245866 0.000000 0.000000 0.000000 
1.796507 0.889076 0.426103 -10.331173 -6.369899 10.974689 21.345614 4.916142 -39.325270 -8.919205 4.104738 38.966116 7.835159 16.192752 -0.511023 0.000000 0.000000 0.000000 -9.979557 1.558618 -29.537829 9.345864 -1.594379 29.327292 -8.421435 -21.504370 13.875346 0.000000 0.000000 0.000000 -2.245808 0.328619 49.904649 -11.152903 2.751819 -27.991179 -3.009708 -5.408042 29.696974 5.701667 -0.716336 -43.612059 0.000000 0.000000 0.000000 -6.982738 -24.986005 11.502661 9.574570 -40.172191 -5.336433 30.661475 -5.960996 -1.176218 0.000000 0.000000 0.000000 20.689750 3.151972 -1.807013 47.503027 17.841517 0.085626 -11.956328 50.976050 -3.916184 0.000000 0.000000 0.000000 
1.812999 0.904335 0.435492 -10.149510 -4.316387 10.887778 19.273073 3.451579 -37.484746 -8.473150 3.278327 35.503547 7.826038 16.357231 1.164913 0.000000 0.000000 0.000000 -9.304933 1.431757 -27.944669 9.174620 -1.691194 26.765436 -8.812917 -21.898157 16.160686 0.000000 0.000000 0.000000 -1.937507 -0.341287 48.309546 -11.467131 2.841553 -27.773849 -2.345219 -5.175933 29.445860 5.616348 -0.586917 -43.573173 0.000000 0.000000 0.000000 -7.246137 -24.736869 11.334439 9.695241 -41.605257 -5.702997 30.322728 -5.631599 -1.102036 0.000000 0.000000 0.000000 21.123908 2.860231 -1.733544 47.003582 17.048322 -0.250360 -12.316602 53.330621 -4.137797 0.000000 0.000000 0.000000 
1.826430 0.917571 0.444237 -9.925158 -2.025734 10.500300 17.177788 2.152502 -35.624122 -7.279500 2.231767 32.298541 7.523994 15.986535 2.942118 0.000000 0.000000 0.000000 -8.481172 1.333567 -26.535027 9.179853 -1.831747 24.365099 -9.001348 -21.837200 18.577222 0.000000 0.000000 0.000000 -1.754945 -0.932822 46.865643 -10.557111 2.728987 -27.086410 -2.353956 -4.680546 29.119681 6.173264 -0.631164 -43.480569 0.000000 0.000000 0.000000 -7.264769 -25.323020 11.382279 9.787134 -42.535351 -5.972282 30.388253 -5.697897 -1.157039 0.000000 0.000000 0.000000 21.457396 2.528167 -1.550780 46.589488 16.600988 -0.461751 -11.388895 55.385424 -3.592891 0.000000 0.000000 0.000000 
1.837160 0.928528 0.452294 -9.827111 -1.698492 10.097368 15.970745 1.533682 -32.850258 -6.858574 1.848925 28.925455 7.307945 15.687248 4.242650 0.000000 0.000000 0.000000 -6.528319 1.610922 -25.715480 8.446687 -1.558312 22.498731 -9.246278 -22.153707 19.157773 0.000000 0.000000 0.000000 -1.575450 -1.061218 45.000343 -10.869812 2.815771 -26.879125 -2.588725 -4.386077 29.437549 6.634813 -0.810715 -43.177638 0.000000 0.000000 0.000000 -7.267014 -25.003789 11.154543 8.497128 -42.609250 -5.660989 30.744236 -8.394390 -1.830830 0.000000 0.000000 0.000000 21.942386 1.660169 -1.986113 47.174841 15.281539 -0.983559 -8.055197 56.632118 -1.844979 0.000000 0.000000 0.000000 
1.845770 0.936162 0.459995 -9.364709 -0.723221 9.502372 14.209866 0.814884 -30.594431 -6.179158 1.400295 26.644239 7.715850 16.569426 5.693787 0.000000 0.000000 0.000000 -5.253614 1.715132 -24.978467 8.283469 -1.522830 20.702815 -9.460914 -22.298746 20.044902 0.000000 0.000000 0.000000 -1.315642 -1.326978 43.481134 -10.129014 2.729663 -26.124740 -3.274246 -4.212029 29.689354 7.424317 -0.940559 -43.975200 0.000000 0.000000 0.000000 -7.014475 -25.484996 11.161011 6.948881 -42.819951 -5.278636 31.321529 -10.738208 -2.462812 0.000000 0.000000 0.000000 23.054425 0.398304 -2.708385 47.727284 14.408276 -1.337135 -4.347530 57.882514 0.278128 0.000000 0.000000 0.000000 
1.853150 0.940858 0.467179 -8.992359 -0.416858 8.454793 12.946121 0.388118 -27.828074 -5.840518 1.185753 24.791432 7.534253 16.247447 5.806376 0.000000 0.000000 0.000000 -3.762942 1.888285 -24.241266 8.255647 -1.503089 19.665299 -9.421097 -22.180970 19.675096 0.000000 0.000000 0.000000 -1.020815 -1.480498 42.296951 -10.142292 2.784577 -25.659262 -3.880584 -4.749271 30.076353 7.567745 -1.074341 -43.926150 0.000000 0.000000 0.000000 -6.787003 -25.113678 10.932727 6.247201 -42.318902 -4.952371 31.309395 -13.831666 -3.234378 0.000000 0.000000 0.000000 23.081076 -0.416073 -3.322719 48.584848 13.252769 -1.777697 -0.038253 58.608609 2.553354 0.000000 0.000000 0.000000 
1.859461 0.944378 0.473954 -8.494316 -0.483446 7.880154 11.330607 0.008439 -25.605246 -5.249648 0.942176 22.793642 7.708192 16.642640 7.365524 0.000000 0.000000 0.000000 -2.200098 2.131551 -24.054317 7.594871 -1.271351 18.204416 -9.230642 -21.883565 19.949881 0.000000 0.000000 0.000000 -0.639069 -1.570608 40.934243 -9.705581 2.714867 -25.461536 -4.775628 -5.336600 30.527136 8.311507 -1.370063 -44.516103 0.000000 0.000000 0.000000 -6.252981 -25.518977 10.995395 5.359156 -42.070940 -4.599313 31.284081 -15.853508 -3.718670 0.000000 0.000000 0.000000 24.152028 -1.225204 -4.225909 48.843839 12.489148 -2.010017 4.543801 59.531752 5.029020 0.000000 0.000000 0.000000 
1.865334 0.946167 0.480397 -8.037878 -1.080154 7.058165 10.310066 -0.159380 -23.039918 -5.124361 0.915911 21.727721 7.682090 16.465068 6.231108 0.000000 0.000000 0.000000 -0.515234 2.388932 -23.558869 6.549145 -0.947279 17.433848 -9.044713 -21.682650 19.382816 0.000000 0.000000 0.000000 -0.000910 -1.695851 39.965243 -9.924626 2.772741 -25.446461 -5.221912 -6.368511 30.988923 7.828514 -1.379754 -44.574310 0.000000 0.000000 0.000000 -6.360428 -25.697316 11.223854 5.931110 -41.366287 -4.542618 30.756118 -17.455187 -4.027824 0.000000 0.000000 0.000000 24.289114 -1.503931 -4.884478 49.787278 11.713324 -2.246122 8.061718 60.325800 6.807629 0.000000 0.000000 0.000000 
